<svg width="76" height="89" viewBox="0 0 76 89" fill="none" xmlns="http://www.w3.org/2000/svg">
<path d="M28.0199 17.4938C27.6446 17.4268 27.276 17.6077 27.0549 17.9092L27.008 17.9896C26.9141 18.0834 26.8337 18.1973 26.7801 18.3246C26.6461 18.6127 26.5991 18.9678 26.5857 19.2827C26.579 19.5574 26.5991 19.8254 26.6394 20.0934C26.6394 20.281 26.6394 20.4686 26.6461 20.6562C26.6595 20.9376 26.7466 21.2324 26.9208 21.4669C27.1554 21.7818 27.5776 21.956 27.9663 21.8689C28.3684 21.7751 28.6901 21.5071 28.8576 21.1252C28.9648 20.884 28.9849 20.616 28.9983 20.3547C29.0319 20.2006 29.052 20.0465 29.0654 19.8924C29.1123 19.343 29.0922 18.673 28.8375 18.1705C28.67 17.8288 28.3952 17.5608 28.0199 17.4938Z" fill="#242647"/>
<path d="M43.8023 20.6495C43.8157 20.9309 43.9028 21.2257 44.0771 21.4602C44.3116 21.7751 44.7338 21.9493 45.1225 21.8622C45.5246 21.7684 45.8463 21.5004 46.0138 21.1185C46.1211 20.8773 46.1412 20.6093 46.1546 20.348C46.1881 20.1939 46.2082 20.0398 46.2216 19.8857C46.2685 19.3363 46.2484 18.6663 45.9937 18.1638C45.8262 17.8288 45.5581 17.5608 45.1761 17.4938C44.8008 17.4268 44.4323 17.6077 44.2111 17.9092L44.1642 17.9896C44.0704 18.0834 43.99 18.1973 43.9363 18.3246C43.8023 18.6127 43.7554 18.9678 43.742 19.2827C43.7353 19.5574 43.7554 19.8254 43.7956 20.0934C43.7889 20.2743 43.7889 20.4619 43.8023 20.6495Z" fill="#242647"/>
<path d="M39.9757 24.6494C40.304 23.8722 39.2653 23.3563 38.7492 23.9459C38.3874 24.3546 38.1126 24.7365 37.6167 25.0045C37.1275 25.2658 36.5712 25.4132 36.015 25.4266C35.4118 25.44 34.8087 25.3127 34.2256 25.1586C33.9107 25.0782 33.6024 24.9576 33.3142 24.8169C33.0059 24.6695 32.7312 24.5087 32.3827 24.5087C32.2486 24.5087 32.1012 24.6092 32.1347 24.7633C32.2955 25.5003 33.1735 25.9693 33.7833 26.311C34.5205 26.7264 35.385 26.8872 36.2294 26.8537C36.9398 26.8269 37.6636 26.6326 38.2868 26.2909C38.9503 25.9157 39.6674 25.3663 39.9757 24.6494Z" fill="#242647"/>
<path d="M72.5926 15.6714C71.0378 15.0282 69.0944 15.4034 67.8746 16.5558C66.4271 17.9226 65.9915 20.0867 66.5209 21.9694C67.0972 24.0196 68.6922 25.5472 70.5419 26.5054C70.7161 26.5992 70.877 26.6126 71.0244 26.5724C70.9306 26.7533 70.8435 26.9275 70.7496 27.1084C69.8315 28.9442 68.9201 30.7867 68.002 32.6225C67.2782 34.0697 66.5142 35.738 64.946 36.4281C63.3577 37.1249 61.3874 36.9976 59.6919 37.0914C57.4401 37.212 55.1884 37.3393 52.9366 37.4666C51.7906 37.5336 50.6446 37.6006 49.4987 37.6743C49.1435 37.6944 48.795 37.7212 48.4398 37.7413C50.2426 36.8703 51.8979 35.8117 53.3655 34.5923C57.7618 30.9542 60.5296 25.8688 60.5229 20.2341C60.5229 14.5994 57.7618 9.51405 53.3655 5.87593C48.9692 2.23111 42.9243 0 36.2696 0C29.6148 0 23.5699 2.23111 19.1736 5.87593C14.7773 9.51405 12.0095 14.5994 12.0162 20.2341C12.0162 25.8688 14.7773 30.9542 19.1736 34.5923C21.3114 36.3678 23.8447 37.8016 26.646 38.8066C26.2975 38.7798 25.9423 38.7597 25.5938 38.7396C24.4478 38.6659 23.3018 38.5989 22.1558 38.5319C19.9041 38.4046 17.6523 38.2773 15.4006 38.1567C13.705 38.0629 11.7347 38.1902 10.1464 37.4934C8.57826 36.8033 7.81427 35.135 7.09049 33.6878C6.17236 31.852 5.26093 30.0095 4.3428 28.1737C4.25568 27.9928 4.16186 27.8186 4.06804 27.6377C4.20877 27.6712 4.3763 27.6578 4.55055 27.5707C6.40021 26.6126 7.99521 25.0849 8.57155 23.0347C9.10098 21.152 8.66538 18.9879 7.21782 17.6211C5.99812 16.4687 4.05463 16.0935 2.49984 16.7367C0.817718 17.4335 0.0135205 19.209 0.000117157 20.951C-0.0132862 23.1151 1.126 25.0715 2.06423 26.9476C3.1432 29.105 4.22217 31.2624 5.30114 33.4198C6.15896 35.1283 6.95645 37.1115 8.57826 38.2505C10.314 39.4699 12.5188 39.3761 14.5427 39.4565C16.9352 39.5436 19.321 39.6307 21.7135 39.7178C22.9064 39.758 24.106 39.8049 25.2989 39.8317C26.0026 39.8518 26.7331 39.8987 27.4502 39.8786C26.9073 41.0042 26.4717 42.1834 26.0361 43.3426C25.4799 44.8233 24.9772 46.3241 24.5148 47.8383C23.6034 50.8399 22.8662 53.8951 22.2832 56.9771C21.7671 59.7175 20.9026 62.9871 22.0486 65.6738C22.9868 67.8714 25.0845 69.2851 27.2357 70.136C27.9997 70.4375 28.7905 70.6854 29.5947 70.8998C29.5009 72.0053 29.5344 73.1376 29.5009 74.2431C29.4607 75.5563 29.4071 76.8695 29.3333 78.1894C29.206 80.4474 29.0049 82.6986 28.7503 84.9498C27.2558 84.2664 25.6407 83.9247 23.972 83.985C22.4038 84.0453 19.8706 84.5009 19.6226 86.4372C19.5087 87.335 20.0381 88.1524 20.7887 88.5946C21.6934 89.1172 22.7858 89.0368 23.7776 88.8894C25.7211 88.6013 27.5574 87.8978 29.2261 86.8794C29.655 86.9665 30.1241 86.7655 30.171 86.2429C30.4391 83.5763 30.6201 80.903 30.7072 78.223C30.7541 76.903 30.7742 75.5831 30.7675 74.2699C30.7608 73.2448 30.7876 72.1929 30.6938 71.1611C32.4295 71.5296 34.2054 71.7306 35.9479 71.7909C38.3806 71.8847 40.8669 71.7373 43.2661 71.2482C43.179 72.2465 43.2058 73.2716 43.1991 74.2632C43.1924 75.5831 43.2125 76.903 43.2594 78.2162C43.3465 80.8963 43.5342 83.5696 43.7955 86.2362C43.8491 86.7521 44.3116 86.9598 44.7405 86.8727C46.4092 87.8911 48.2454 88.5946 50.1889 88.8827C51.1808 89.0301 52.2731 89.1105 53.1779 88.5879C53.9352 88.1524 54.4646 87.3283 54.344 86.4305C54.0893 84.4942 51.5561 84.0386 49.9946 83.9783C48.3259 83.918 46.7108 84.2597 45.2163 84.9431C44.9616 82.6986 44.7606 80.4407 44.6332 78.1828C44.5595 76.8695 44.5059 75.5563 44.4657 74.2364C44.4322 73.1577 44.459 72.0656 44.3786 70.9869C44.5461 70.9467 44.7137 70.9065 44.8745 70.8596C47.2938 70.1829 49.6997 68.997 51.1875 66.8999C52.7959 64.6286 53.064 61.7811 52.8562 59.0809C52.5948 55.7309 51.7906 52.3675 50.9127 49.1314C49.9678 45.6474 48.795 42.2303 47.3876 38.9004C47.3675 38.8535 47.3474 38.82 47.3206 38.7798C48.1449 38.8334 48.9893 38.7731 49.8002 38.753C50.9931 38.7195 52.1927 38.6793 53.3856 38.6391C55.7781 38.552 58.1639 38.4716 60.5564 38.3778C62.5803 38.3041 64.7919 38.3912 66.5209 37.1718C68.1427 36.0328 68.9402 34.0563 69.798 32.3411C70.877 30.1837 71.956 28.0263 73.0349 25.8689C73.9732 23.9861 75.1125 22.0364 75.0991 19.8723C75.0789 18.1437 74.2747 16.3682 72.5926 15.6714ZM3.5587 26.6528C2.93545 25.4534 2.3122 24.2407 1.87659 22.9811C1.38736 21.5808 1.23992 19.7048 2.44622 18.606C3.45818 17.6814 5.1537 17.8623 6.13214 18.7333C7.23792 19.7249 7.49258 21.4401 7.04357 22.8069C6.55435 24.2943 5.33465 25.4467 3.97421 26.1503C3.73966 26.2709 3.61232 26.4518 3.5587 26.6528ZM24.5617 87.1675C23.8648 87.3216 23.1142 87.4757 22.3971 87.4489C21.9347 87.4288 20.9696 87.1809 21.2176 86.5176C21.3852 86.062 22.1424 85.861 22.5512 85.7605C23.2348 85.5997 23.9586 85.5327 24.6623 85.5528C25.634 85.5796 26.5991 85.7672 27.5105 86.1022C26.5722 86.5712 25.5804 86.9397 24.5617 87.1675ZM49.2976 85.5528C50.0013 85.5327 50.7251 85.5997 51.4086 85.7605C51.8174 85.8543 52.5747 86.062 52.7423 86.5176C52.9902 87.1809 52.0252 87.4288 51.5561 87.4489C50.839 87.4824 50.0884 87.3216 49.3914 87.1675C48.3661 86.9397 47.3809 86.5712 46.4427 86.0955C47.3608 85.7605 48.3259 85.5796 49.2976 85.5528ZM13.6179 20.2408C13.6179 15.1488 16.1042 10.5191 20.199 7.12213C24.287 3.73191 29.97 1.61471 36.2696 1.61471C42.5624 1.61471 48.2521 3.73191 52.3402 7.12213C56.4282 10.5124 58.9145 15.1421 58.9212 20.2408C58.9212 25.3328 56.4349 29.9626 52.3402 33.3595C48.2521 36.7497 42.5691 38.8669 36.2696 38.8669C29.9767 38.8669 24.287 36.7497 20.199 33.3595C16.1042 29.9626 13.6246 25.3328 13.6179 20.2408ZM50.7251 56.5349C51.1339 58.9134 51.4757 61.5197 50.7318 63.8715C49.9812 66.2299 48.1851 67.7709 45.9401 68.6754C43.5208 69.6469 40.8066 69.9819 38.213 70.069C35.3179 70.1695 32.3223 69.868 29.521 69.1176C27.477 68.5682 25.2788 67.657 23.9854 65.8949C22.3971 63.7308 23.1008 60.7024 23.4627 58.2501C23.9452 55.014 24.6422 51.8047 25.5335 48.6557C25.9758 47.0946 26.465 45.5402 26.9877 44.0059C27.4703 42.5854 28.0533 41.1985 28.5157 39.7714C28.5827 39.758 28.6565 39.7513 28.7235 39.7312C28.824 39.7111 28.9044 39.6307 28.9513 39.5369C31.2634 40.1466 33.7162 40.4749 36.2629 40.4749C39.6271 40.4749 42.8305 39.9054 45.7457 38.8669C45.6251 39.0746 45.5983 39.3359 45.7189 39.6173C48.0243 45.0511 49.7198 50.7193 50.7251 56.5349ZM73.2159 21.9091C72.7736 23.1687 72.157 24.3814 71.5338 25.5807C71.4801 25.3797 71.3528 25.1988 71.1249 25.0782C69.7645 24.368 68.5448 23.2223 68.0556 21.7349C67.6066 20.3681 67.8545 18.6529 68.967 17.6613C69.9454 16.7836 71.641 16.6094 72.6529 17.534C73.8525 18.6328 73.7051 20.5088 73.2159 21.9091Z" fill="#242647"/>
</svg>
